<?xml version="1.0" encoding="utf-8" standalone="no"?>
<!DOCTYPE svg PUBLIC "-//W3C//DTD SVG 1.1//EN"
  "http://www.w3.org/Graphics/SVG/1.1/DTD/svg11.dtd">
<!-- Created with matplotlib (http://matplotlib.org/) -->
<svg height="288pt" version="1.1" viewBox="0 0 432 288" width="432pt" xmlns="http://www.w3.org/2000/svg" xmlns:xlink="http://www.w3.org/1999/xlink">
 <defs>
  <style type="text/css">
*{stroke-linecap:butt;stroke-linejoin:round;}
  </style>
 </defs>
 <g id="figure_1">
  <g id="patch_1">
   <path d="M 0 288 
L 432 288 
L 432 0 
L 0 0 
z
" style="fill:#ffffff;"/>
  </g>
  <g id="axes_1">
   <g id="patch_2">
    <path d="M 54 230.4 
L 388.8 230.4 
L 388.8 34.56 
L 54 34.56 
z
" style="fill:#ffffff;"/>
   </g>
   <g id="matplotlib.axis_1">
    <g id="xtick_1">
     <g id="line2d_1">
      <defs>
       <path d="M 0 0 
L 0 3.5 
" id="mf8b1eb5066" style="stroke:#000000;stroke-width:0.8;"/>
      </defs>
      <g>
       <use style="stroke:#000000;stroke-width:0.8;" x="82.82719" xlink:href="#mf8b1eb5066" y="230.4"/>
      </g>
     </g>
     <g id="text_1">
      <!-- 2016-03 -->
      <defs>
       <path d="M 19.1875 8.296875 
L 53.609375 8.296875 
L 53.609375 0 
L 7.328125 0 
L 7.328125 8.296875 
Q 12.9375 14.109375 22.625 23.890625 
Q 32.328125 33.6875 34.8125 36.53125 
Q 39.546875 41.84375 41.421875 45.53125 
Q 43.3125 49.21875 43.3125 52.78125 
Q 43.3125 58.59375 39.234375 62.25 
Q 35.15625 65.921875 28.609375 65.921875 
Q 23.96875 65.921875 18.8125 64.3125 
Q 13.671875 62.703125 7.8125 59.421875 
L 7.8125 69.390625 
Q 13.765625 71.78125 18.9375 73 
Q 24.125 74.21875 28.421875 74.21875 
Q 39.75 74.21875 46.484375 68.546875 
Q 53.21875 62.890625 53.21875 53.421875 
Q 53.21875 48.921875 51.53125 44.890625 
Q 49.859375 40.875 45.40625 35.40625 
Q 44.1875 33.984375 37.640625 27.21875 
Q 31.109375 20.453125 19.1875 8.296875 
z
" id="DejaVuSans-32"/>
       <path d="M 31.78125 66.40625 
Q 24.171875 66.40625 20.328125 58.90625 
Q 16.5 51.421875 16.5 36.375 
Q 16.5 21.390625 20.328125 13.890625 
Q 24.171875 6.390625 31.78125 6.390625 
Q 39.453125 6.390625 43.28125 13.890625 
Q 47.125 21.390625 47.125 36.375 
Q 47.125 51.421875 43.28125 58.90625 
Q 39.453125 66.40625 31.78125 66.40625 
z
M 31.78125 74.21875 
Q 44.046875 74.21875 50.515625 64.515625 
Q 56.984375 54.828125 56.984375 36.375 
Q 56.984375 17.96875 50.515625 8.265625 
Q 44.046875 -1.421875 31.78125 -1.421875 
Q 19.53125 -1.421875 13.0625 8.265625 
Q 6.59375 17.96875 6.59375 36.375 
Q 6.59375 54.828125 13.0625 64.515625 
Q 19.53125 74.21875 31.78125 74.21875 
z
" id="DejaVuSans-30"/>
       <path d="M 12.40625 8.296875 
L 28.515625 8.296875 
L 28.515625 63.921875 
L 10.984375 60.40625 
L 10.984375 69.390625 
L 28.421875 72.90625 
L 38.28125 72.90625 
L 38.28125 8.296875 
L 54.390625 8.296875 
L 54.390625 0 
L 12.40625 0 
z
" id="DejaVuSans-31"/>
       <path d="M 33.015625 40.375 
Q 26.375 40.375 22.484375 35.828125 
Q 18.609375 31.296875 18.609375 23.390625 
Q 18.609375 15.53125 22.484375 10.953125 
Q 26.375 6.390625 33.015625 6.390625 
Q 39.65625 6.390625 43.53125 10.953125 
Q 47.40625 15.53125 47.40625 23.390625 
Q 47.40625 31.296875 43.53125 35.828125 
Q 39.65625 40.375 33.015625 40.375 
z
M 52.59375 71.296875 
L 52.59375 62.3125 
Q 48.875 64.0625 45.09375 64.984375 
Q 41.3125 65.921875 37.59375 65.921875 
Q 27.828125 65.921875 22.671875 59.328125 
Q 17.53125 52.734375 16.796875 39.40625 
Q 19.671875 43.65625 24.015625 45.921875 
Q 28.375 48.1875 33.59375 48.1875 
Q 44.578125 48.1875 50.953125 41.515625 
Q 57.328125 34.859375 57.328125 23.390625 
Q 57.328125 12.15625 50.6875 5.359375 
Q 44.046875 -1.421875 33.015625 -1.421875 
Q 20.359375 -1.421875 13.671875 8.265625 
Q 6.984375 17.96875 6.984375 36.375 
Q 6.984375 53.65625 15.1875 63.9375 
Q 23.390625 74.21875 37.203125 74.21875 
Q 40.921875 74.21875 44.703125 73.484375 
Q 48.484375 72.75 52.59375 71.296875 
z
" id="DejaVuSans-36"/>
       <path d="M 4.890625 31.390625 
L 31.203125 31.390625 
L 31.203125 23.390625 
L 4.890625 23.390625 
z
" id="DejaVuSans-2d"/>
       <path d="M 40.578125 39.3125 
Q 47.65625 37.796875 51.625 33 
Q 55.609375 28.21875 55.609375 21.1875 
Q 55.609375 10.40625 48.1875 4.484375 
Q 40.765625 -1.421875 27.09375 -1.421875 
Q 22.515625 -1.421875 17.65625 -0.515625 
Q 12.796875 0.390625 7.625 2.203125 
L 7.625 11.71875 
Q 11.71875 9.328125 16.59375 8.109375 
Q 21.484375 6.890625 26.8125 6.890625 
Q 36.078125 6.890625 40.9375 10.546875 
Q 45.796875 14.203125 45.796875 21.1875 
Q 45.796875 27.640625 41.28125 31.265625 
Q 36.765625 34.90625 28.71875 34.90625 
L 20.21875 34.90625 
L 20.21875 43.015625 
L 29.109375 43.015625 
Q 36.375 43.015625 40.234375 45.921875 
Q 44.09375 48.828125 44.09375 54.296875 
Q 44.09375 59.90625 40.109375 62.90625 
Q 36.140625 65.921875 28.71875 65.921875 
Q 24.65625 65.921875 20.015625 65.03125 
Q 15.375 64.15625 9.8125 62.3125 
L 9.8125 71.09375 
Q 15.4375 72.65625 20.34375 73.4375 
Q 25.25 74.21875 29.59375 74.21875 
Q 40.828125 74.21875 47.359375 69.109375 
Q 53.90625 64.015625 53.90625 55.328125 
Q 53.90625 49.265625 50.4375 45.09375 
Q 46.96875 40.921875 40.578125 39.3125 
z
" id="DejaVuSans-33"/>
      </defs>
      <g transform="translate(45.60237 264.871846)rotate(-30)scale(0.1 -0.1)">
       <use xlink:href="#DejaVuSans-32"/>
       <use x="63.623047" xlink:href="#DejaVuSans-30"/>
       <use x="127.246094" xlink:href="#DejaVuSans-31"/>
       <use x="190.869141" xlink:href="#DejaVuSans-36"/>
       <use x="254.492188" xlink:href="#DejaVuSans-2d"/>
       <use x="290.576172" xlink:href="#DejaVuSans-30"/>
       <use x="354.199219" xlink:href="#DejaVuSans-33"/>
      </g>
     </g>
    </g>
    <g id="xtick_2">
     <g id="line2d_2">
      <g>
       <use style="stroke:#000000;stroke-width:0.8;" x="113.677341" xlink:href="#mf8b1eb5066" y="230.4"/>
      </g>
     </g>
     <g id="text_2">
      <!-- 2016-05 -->
      <defs>
       <path d="M 10.796875 72.90625 
L 49.515625 72.90625 
L 49.515625 64.59375 
L 19.828125 64.59375 
L 19.828125 46.734375 
Q 21.96875 47.46875 24.109375 47.828125 
Q 26.265625 48.1875 28.421875 48.1875 
Q 40.625 48.1875 47.75 41.5 
Q 54.890625 34.8125 54.890625 23.390625 
Q 54.890625 11.625 47.5625 5.09375 
Q 40.234375 -1.421875 26.90625 -1.421875 
Q 22.3125 -1.421875 17.546875 -0.640625 
Q 12.796875 0.140625 7.71875 1.703125 
L 7.71875 11.625 
Q 12.109375 9.234375 16.796875 8.0625 
Q 21.484375 6.890625 26.703125 6.890625 
Q 35.15625 6.890625 40.078125 11.328125 
Q 45.015625 15.765625 45.015625 23.390625 
Q 45.015625 31 40.078125 35.4375 
Q 35.15625 39.890625 26.703125 39.890625 
Q 22.75 39.890625 18.8125 39.015625 
Q 14.890625 38.140625 10.796875 36.28125 
z
" id="DejaVuSans-35"/>
      </defs>
      <g transform="translate(76.452521 264.871846)rotate(-30)scale(0.1 -0.1)">
       <use xlink:href="#DejaVuSans-32"/>
       <use x="63.623047" xlink:href="#DejaVuSans-30"/>
       <use x="127.246094" xlink:href="#DejaVuSans-31"/>
       <use x="190.869141" xlink:href="#DejaVuSans-36"/>
       <use x="254.492188" xlink:href="#DejaVuSans-2d"/>
       <use x="290.576172" xlink:href="#DejaVuSans-30"/>
       <use x="354.199219" xlink:href="#DejaVuSans-35"/>
      </g>
     </g>
    </g>
    <g id="xtick_3">
     <g id="line2d_3">
      <g>
       <use style="stroke:#000000;stroke-width:0.8;" x="144.527492" xlink:href="#mf8b1eb5066" y="230.4"/>
      </g>
     </g>
     <g id="text_3">
      <!-- 2016-07 -->
      <defs>
       <path d="M 8.203125 72.90625 
L 55.078125 72.90625 
L 55.078125 68.703125 
L 28.609375 0 
L 18.3125 0 
L 43.21875 64.59375 
L 8.203125 64.59375 
z
" id="DejaVuSans-37"/>
      </defs>
      <g transform="translate(107.302672 264.871846)rotate(-30)scale(0.1 -0.1)">
       <use xlink:href="#DejaVuSans-32"/>
       <use x="63.623047" xlink:href="#DejaVuSans-30"/>
       <use x="127.246094" xlink:href="#DejaVuSans-31"/>
       <use x="190.869141" xlink:href="#DejaVuSans-36"/>
       <use x="254.492188" xlink:href="#DejaVuSans-2d"/>
       <use x="290.576172" xlink:href="#DejaVuSans-30"/>
       <use x="354.199219" xlink:href="#DejaVuSans-37"/>
      </g>
     </g>
    </g>
    <g id="xtick_4">
     <g id="line2d_4">
      <g>
       <use style="stroke:#000000;stroke-width:0.8;" x="175.883384" xlink:href="#mf8b1eb5066" y="230.4"/>
      </g>
     </g>
     <g id="text_4">
      <!-- 2016-09 -->
      <defs>
       <path d="M 10.984375 1.515625 
L 10.984375 10.5 
Q 14.703125 8.734375 18.5 7.8125 
Q 22.3125 6.890625 25.984375 6.890625 
Q 35.75 6.890625 40.890625 13.453125 
Q 46.046875 20.015625 46.78125 33.40625 
Q 43.953125 29.203125 39.59375 26.953125 
Q 35.25 24.703125 29.984375 24.703125 
Q 19.046875 24.703125 12.671875 31.3125 
Q 6.296875 37.9375 6.296875 49.421875 
Q 6.296875 60.640625 12.9375 67.421875 
Q 19.578125 74.21875 30.609375 74.21875 
Q 43.265625 74.21875 49.921875 64.515625 
Q 56.59375 54.828125 56.59375 36.375 
Q 56.59375 19.140625 48.40625 8.859375 
Q 40.234375 -1.421875 26.421875 -1.421875 
Q 22.703125 -1.421875 18.890625 -0.6875 
Q 15.09375 0.046875 10.984375 1.515625 
z
M 30.609375 32.421875 
Q 37.25 32.421875 41.125 36.953125 
Q 45.015625 41.5 45.015625 49.421875 
Q 45.015625 57.28125 41.125 61.84375 
Q 37.25 66.40625 30.609375 66.40625 
Q 23.96875 66.40625 20.09375 61.84375 
Q 16.21875 57.28125 16.21875 49.421875 
Q 16.21875 41.5 20.09375 36.953125 
Q 23.96875 32.421875 30.609375 32.421875 
z
" id="DejaVuSans-39"/>
      </defs>
      <g transform="translate(138.658563 264.871846)rotate(-30)scale(0.1 -0.1)">
       <use xlink:href="#DejaVuSans-32"/>
       <use x="63.623047" xlink:href="#DejaVuSans-30"/>
       <use x="127.246094" xlink:href="#DejaVuSans-31"/>
       <use x="190.869141" xlink:href="#DejaVuSans-36"/>
       <use x="254.492188" xlink:href="#DejaVuSans-2d"/>
       <use x="290.576172" xlink:href="#DejaVuSans-30"/>
       <use x="354.199219" xlink:href="#DejaVuSans-39"/>
      </g>
     </g>
    </g>
    <g id="xtick_5">
     <g id="line2d_5">
      <g>
       <use style="stroke:#000000;stroke-width:0.8;" x="206.733535" xlink:href="#mf8b1eb5066" y="230.4"/>
      </g>
     </g>
     <g id="text_5">
      <!-- 2016-11 -->
      <g transform="translate(169.508714 264.871846)rotate(-30)scale(0.1 -0.1)">
       <use xlink:href="#DejaVuSans-32"/>
       <use x="63.623047" xlink:href="#DejaVuSans-30"/>
       <use x="127.246094" xlink:href="#DejaVuSans-31"/>
       <use x="190.869141" xlink:href="#DejaVuSans-36"/>
       <use x="254.492188" xlink:href="#DejaVuSans-2d"/>
       <use x="290.576172" xlink:href="#DejaVuSans-31"/>
       <use x="354.199219" xlink:href="#DejaVuSans-31"/>
      </g>
     </g>
    </g>
    <g id="xtick_6">
     <g id="line2d_6">
      <g>
       <use style="stroke:#000000;stroke-width:0.8;" x="237.583686" xlink:href="#mf8b1eb5066" y="230.4"/>
      </g>
     </g>
     <g id="text_6">
      <!-- 2017-01 -->
      <g transform="translate(200.358865 264.871846)rotate(-30)scale(0.1 -0.1)">
       <use xlink:href="#DejaVuSans-32"/>
       <use x="63.623047" xlink:href="#DejaVuSans-30"/>
       <use x="127.246094" xlink:href="#DejaVuSans-31"/>
       <use x="190.869141" xlink:href="#DejaVuSans-37"/>
       <use x="254.492188" xlink:href="#DejaVuSans-2d"/>
       <use x="290.576172" xlink:href="#DejaVuSans-30"/>
       <use x="354.199219" xlink:href="#DejaVuSans-31"/>
      </g>
     </g>
    </g>
    <g id="xtick_7">
     <g id="line2d_7">
      <g>
       <use style="stroke:#000000;stroke-width:0.8;" x="267.422356" xlink:href="#mf8b1eb5066" y="230.4"/>
      </g>
     </g>
     <g id="text_7">
      <!-- 2017-03 -->
      <g transform="translate(230.197536 264.871846)rotate(-30)scale(0.1 -0.1)">
       <use xlink:href="#DejaVuSans-32"/>
       <use x="63.623047" xlink:href="#DejaVuSans-30"/>
       <use x="127.246094" xlink:href="#DejaVuSans-31"/>
       <use x="190.869141" xlink:href="#DejaVuSans-37"/>
       <use x="254.492188" xlink:href="#DejaVuSans-2d"/>
       <use x="290.576172" xlink:href="#DejaVuSans-30"/>
       <use x="354.199219" xlink:href="#DejaVuSans-33"/>
      </g>
     </g>
    </g>
    <g id="xtick_8">
     <g id="line2d_8">
      <g>
       <use style="stroke:#000000;stroke-width:0.8;" x="298.272508" xlink:href="#mf8b1eb5066" y="230.4"/>
      </g>
     </g>
     <g id="text_8">
      <!-- 2017-05 -->
      <g transform="translate(261.047687 264.871846)rotate(-30)scale(0.1 -0.1)">
       <use xlink:href="#DejaVuSans-32"/>
       <use x="63.623047" xlink:href="#DejaVuSans-30"/>
       <use x="127.246094" xlink:href="#DejaVuSans-31"/>
       <use x="190.869141" xlink:href="#DejaVuSans-37"/>
       <use x="254.492188" xlink:href="#DejaVuSans-2d"/>
       <use x="290.576172" xlink:href="#DejaVuSans-30"/>
       <use x="354.199219" xlink:href="#DejaVuSans-35"/>
      </g>
     </g>
    </g>
    <g id="xtick_9">
     <g id="line2d_9">
      <g>
       <use style="stroke:#000000;stroke-width:0.8;" x="329.122659" xlink:href="#mf8b1eb5066" y="230.4"/>
      </g>
     </g>
     <g id="text_9">
      <!-- 2017-07 -->
      <g transform="translate(291.897838 264.871846)rotate(-30)scale(0.1 -0.1)">
       <use xlink:href="#DejaVuSans-32"/>
       <use x="63.623047" xlink:href="#DejaVuSans-30"/>
       <use x="127.246094" xlink:href="#DejaVuSans-31"/>
       <use x="190.869141" xlink:href="#DejaVuSans-37"/>
       <use x="254.492188" xlink:href="#DejaVuSans-2d"/>
       <use x="290.576172" xlink:href="#DejaVuSans-30"/>
       <use x="354.199219" xlink:href="#DejaVuSans-37"/>
      </g>
     </g>
    </g>
    <g id="xtick_10">
     <g id="line2d_10">
      <g>
       <use style="stroke:#000000;stroke-width:0.8;" x="360.47855" xlink:href="#mf8b1eb5066" y="230.4"/>
      </g>
     </g>
     <g id="text_10">
      <!-- 2017-09 -->
      <g transform="translate(323.253729 264.871846)rotate(-30)scale(0.1 -0.1)">
       <use xlink:href="#DejaVuSans-32"/>
       <use x="63.623047" xlink:href="#DejaVuSans-30"/>
       <use x="127.246094" xlink:href="#DejaVuSans-31"/>
       <use x="190.869141" xlink:href="#DejaVuSans-37"/>
       <use x="254.492188" xlink:href="#DejaVuSans-2d"/>
       <use x="290.576172" xlink:href="#DejaVuSans-30"/>
       <use x="354.199219" xlink:href="#DejaVuSans-39"/>
      </g>
     </g>
    </g>
    <g id="text_11">
     <!-- Date -->
     <defs>
      <path d="M 19.671875 64.796875 
L 19.671875 8.109375 
L 31.59375 8.109375 
Q 46.6875 8.109375 53.6875 14.9375 
Q 60.6875 21.78125 60.6875 36.53125 
Q 60.6875 51.171875 53.6875 57.984375 
Q 46.6875 64.796875 31.59375 64.796875 
z
M 9.8125 72.90625 
L 30.078125 72.90625 
Q 51.265625 72.90625 61.171875 64.09375 
Q 71.09375 55.28125 71.09375 36.53125 
Q 71.09375 17.671875 61.125 8.828125 
Q 51.171875 0 30.078125 0 
L 9.8125 0 
z
" id="DejaVuSans-44"/>
      <path d="M 34.28125 27.484375 
Q 23.390625 27.484375 19.1875 25 
Q 14.984375 22.515625 14.984375 16.5 
Q 14.984375 11.71875 18.140625 8.90625 
Q 21.296875 6.109375 26.703125 6.109375 
Q 34.1875 6.109375 38.703125 11.40625 
Q 43.21875 16.703125 43.21875 25.484375 
L 43.21875 27.484375 
z
M 52.203125 31.203125 
L 52.203125 0 
L 43.21875 0 
L 43.21875 8.296875 
Q 40.140625 3.328125 35.546875 0.953125 
Q 30.953125 -1.421875 24.3125 -1.421875 
Q 15.921875 -1.421875 10.953125 3.296875 
Q 6 8.015625 6 15.921875 
Q 6 25.140625 12.171875 29.828125 
Q 18.359375 34.515625 30.609375 34.515625 
L 43.21875 34.515625 
L 43.21875 35.40625 
Q 43.21875 41.609375 39.140625 45 
Q 35.0625 48.390625 27.6875 48.390625 
Q 23 48.390625 18.546875 47.265625 
Q 14.109375 46.140625 10.015625 43.890625 
L 10.015625 52.203125 
Q 14.9375 54.109375 19.578125 55.046875 
Q 24.21875 56 28.609375 56 
Q 40.484375 56 46.34375 49.84375 
Q 52.203125 43.703125 52.203125 31.203125 
z
" id="DejaVuSans-61"/>
      <path d="M 18.3125 70.21875 
L 18.3125 54.6875 
L 36.8125 54.6875 
L 36.8125 47.703125 
L 18.3125 47.703125 
L 18.3125 18.015625 
Q 18.3125 11.328125 20.140625 9.421875 
Q 21.96875 7.515625 27.59375 7.515625 
L 36.8125 7.515625 
L 36.8125 0 
L 27.59375 0 
Q 17.1875 0 13.234375 3.875 
Q 9.28125 7.765625 9.28125 18.015625 
L 9.28125 47.703125 
L 2.6875 47.703125 
L 2.6875 54.6875 
L 9.28125 54.6875 
L 9.28125 70.21875 
z
" id="DejaVuSans-74"/>
      <path d="M 56.203125 29.59375 
L 56.203125 25.203125 
L 14.890625 25.203125 
Q 15.484375 15.921875 20.484375 11.0625 
Q 25.484375 6.203125 34.421875 6.203125 
Q 39.59375 6.203125 44.453125 7.46875 
Q 49.3125 8.734375 54.109375 11.28125 
L 54.109375 2.78125 
Q 49.265625 0.734375 44.1875 -0.34375 
Q 39.109375 -1.421875 33.890625 -1.421875 
Q 20.796875 -1.421875 13.15625 6.1875 
Q 5.515625 13.8125 5.515625 26.8125 
Q 5.515625 40.234375 12.765625 48.109375 
Q 20.015625 56 32.328125 56 
Q 43.359375 56 49.78125 48.890625 
Q 56.203125 41.796875 56.203125 29.59375 
z
M 47.21875 32.234375 
Q 47.125 39.59375 43.09375 43.984375 
Q 39.0625 48.390625 32.421875 48.390625 
Q 24.90625 48.390625 20.390625 44.140625 
Q 15.875 39.890625 15.1875 32.171875 
z
" id="DejaVuSans-65"/>
     </defs>
     <g transform="translate(209.449219 278.271346)scale(0.1 -0.1)">
      <use xlink:href="#DejaVuSans-44"/>
      <use x="77.001953" xlink:href="#DejaVuSans-61"/>
      <use x="138.28125" xlink:href="#DejaVuSans-74"/>
      <use x="177.490234" xlink:href="#DejaVuSans-65"/>
     </g>
    </g>
   </g>
   <g id="matplotlib.axis_2">
    <g id="ytick_1">
     <g id="line2d_11">
      <defs>
       <path d="M 0 0 
L -3.5 0 
" id="m7db54a1308" style="stroke:#000000;stroke-width:0.8;"/>
      </defs>
      <g>
       <use style="stroke:#000000;stroke-width:0.8;" x="54" xlink:href="#m7db54a1308" y="220.247896"/>
      </g>
     </g>
     <g id="text_12">
      <!-- 90 -->
      <g transform="translate(34.275 224.047114)scale(0.1 -0.1)">
       <use xlink:href="#DejaVuSans-39"/>
       <use x="63.623047" xlink:href="#DejaVuSans-30"/>
      </g>
     </g>
    </g>
    <g id="ytick_2">
     <g id="line2d_12">
      <g>
       <use style="stroke:#000000;stroke-width:0.8;" x="54" xlink:href="#m7db54a1308" y="196.657547"/>
      </g>
     </g>
     <g id="text_13">
      <!-- 100 -->
      <g transform="translate(27.9125 200.456766)scale(0.1 -0.1)">
       <use xlink:href="#DejaVuSans-31"/>
       <use x="63.623047" xlink:href="#DejaVuSans-30"/>
       <use x="127.246094" xlink:href="#DejaVuSans-30"/>
      </g>
     </g>
    </g>
    <g id="ytick_3">
     <g id="line2d_13">
      <g>
       <use style="stroke:#000000;stroke-width:0.8;" x="54" xlink:href="#m7db54a1308" y="173.067198"/>
      </g>
     </g>
     <g id="text_14">
      <!-- 110 -->
      <g transform="translate(27.9125 176.866417)scale(0.1 -0.1)">
       <use xlink:href="#DejaVuSans-31"/>
       <use x="63.623047" xlink:href="#DejaVuSans-31"/>
       <use x="127.246094" xlink:href="#DejaVuSans-30"/>
      </g>
     </g>
    </g>
    <g id="ytick_4">
     <g id="line2d_14">
      <g>
       <use style="stroke:#000000;stroke-width:0.8;" x="54" xlink:href="#m7db54a1308" y="149.47685"/>
      </g>
     </g>
     <g id="text_15">
      <!-- 120 -->
      <g transform="translate(27.9125 153.276068)scale(0.1 -0.1)">
       <use xlink:href="#DejaVuSans-31"/>
       <use x="63.623047" xlink:href="#DejaVuSans-32"/>
       <use x="127.246094" xlink:href="#DejaVuSans-30"/>
      </g>
     </g>
    </g>
    <g id="ytick_5">
     <g id="line2d_15">
      <g>
       <use style="stroke:#000000;stroke-width:0.8;" x="54" xlink:href="#m7db54a1308" y="125.886501"/>
      </g>
     </g>
     <g id="text_16">
      <!-- 130 -->
      <g transform="translate(27.9125 129.68572)scale(0.1 -0.1)">
       <use xlink:href="#DejaVuSans-31"/>
       <use x="63.623047" xlink:href="#DejaVuSans-33"/>
       <use x="127.246094" xlink:href="#DejaVuSans-30"/>
      </g>
     </g>
    </g>
    <g id="ytick_6">
     <g id="line2d_16">
      <g>
       <use style="stroke:#000000;stroke-width:0.8;" x="54" xlink:href="#m7db54a1308" y="102.296152"/>
      </g>
     </g>
     <g id="text_17">
      <!-- 140 -->
      <defs>
       <path d="M 37.796875 64.3125 
L 12.890625 25.390625 
L 37.796875 25.390625 
z
M 35.203125 72.90625 
L 47.609375 72.90625 
L 47.609375 25.390625 
L 58.015625 25.390625 
L 58.015625 17.1875 
L 47.609375 17.1875 
L 47.609375 0 
L 37.796875 0 
L 37.796875 17.1875 
L 4.890625 17.1875 
L 4.890625 26.703125 
z
" id="DejaVuSans-34"/>
      </defs>
      <g transform="translate(27.9125 106.095371)scale(0.1 -0.1)">
       <use xlink:href="#DejaVuSans-31"/>
       <use x="63.623047" xlink:href="#DejaVuSans-34"/>
       <use x="127.246094" xlink:href="#DejaVuSans-30"/>
      </g>
     </g>
    </g>
    <g id="ytick_7">
     <g id="line2d_17">
      <g>
       <use style="stroke:#000000;stroke-width:0.8;" x="54" xlink:href="#m7db54a1308" y="78.705804"/>
      </g>
     </g>
     <g id="text_18">
      <!-- 150 -->
      <g transform="translate(27.9125 82.505023)scale(0.1 -0.1)">
       <use xlink:href="#DejaVuSans-31"/>
       <use x="63.623047" xlink:href="#DejaVuSans-35"/>
       <use x="127.246094" xlink:href="#DejaVuSans-30"/>
      </g>
     </g>
    </g>
    <g id="ytick_8">
     <g id="line2d_18">
      <g>
       <use style="stroke:#000000;stroke-width:0.8;" x="54" xlink:href="#m7db54a1308" y="55.115455"/>
      </g>
     </g>
     <g id="text_19">
      <!-- 160 -->
      <g transform="translate(27.9125 58.914674)scale(0.1 -0.1)">
       <use xlink:href="#DejaVuSans-31"/>
       <use x="63.623047" xlink:href="#DejaVuSans-36"/>
       <use x="127.246094" xlink:href="#DejaVuSans-30"/>
      </g>
     </g>
    </g>
   </g>
   <g id="line2d_19">
    <path clip-path="url(#pf1c23db138)" d="M 54 190.500464 
L 54.50574 183.093097 
L 55.01148 195.336492 
L 55.517221 199.771473 
L 56.022961 200.078141 
L 57.540181 199.087351 
L 58.045921 195.360071 
L 58.551662 195.902656 
L 59.057402 201.469981 
L 59.563142 205.621887 
L 61.586103 200.408403 
L 62.091843 208.216823 
L 63.103323 199.889432 
L 64.620544 193.071821 
L 65.126284 196.822679 
L 65.632024 205.999323 
L 66.137764 211.307151 
L 66.643505 208.948116 
L 68.160725 204.984938 
L 68.666465 207.461931 
L 69.172205 208.452721 
L 69.677946 206.423949 
L 70.183686 204.866995 
L 71.700906 212.864124 
L 72.206647 210.127634 
L 72.712387 206.282414 
L 73.218127 211.307151 
L 73.723867 210.363535 
L 75.746828 208.405548 
L 76.252568 204.513138 
L 76.758308 199.394037 
L 77.264048 206.093687 
L 79.287009 205.150068 
L 79.792749 210.85893 
L 80.298489 205.975728 
L 80.80423 203.262852 
L 82.32145 204.064914 
L 82.82719 202.201274 
L 83.332931 195.454435 
L 83.838671 195.289302 
L 84.344411 191.066627 
L 85.861631 191.019456 
L 86.367372 194.817502 
L 86.873112 193.567216 
L 87.378852 193.331298 
L 87.884592 191.373314 
L 89.401813 192.151781 
L 89.907553 187.315771 
L 90.413293 185.782394 
L 91.424773 181.701275 
L 92.941994 182.66847 
L 93.447734 184.272614 
L 93.953474 181.370994 
L 94.459215 183.753624 
L 96.482175 182.503338 
L 96.987915 185.121869 
L 97.493656 176.251891 
L 97.999396 173.727726 
L 98.505136 175.945223 
L 100.022356 172.076408 
L 100.528097 174.223121 
L 101.033837 172.524613 
L 101.539577 173.185157 
L 102.045317 175.638537 
L 103.562538 175.497002 
L 104.068278 174.624171 
L 104.574018 171.179963 
L 105.079758 169.245555 
L 105.585498 168.089632 
L 108.114199 180.993558 
L 108.61994 180.309435 
L 109.12568 184.838778 
L 110.6429 184.862373 
L 111.14864 187.433711 
L 111.654381 206.093687 
L 112.160121 202.295638 
L 112.665861 210.835351 
L 114.183082 210.882525 
L 114.688822 210.339956 
L 115.194562 207.980921 
L 115.700302 210.811756 
L 116.206042 212.297941 
L 117.723263 213.170791 
L 118.229003 212.392305 
L 118.734743 212.038447 
L 119.240483 213.831319 
L 119.746224 220.247896 
L 121.263444 214.609805 
L 121.769184 209.51428 
L 122.274924 210.434301 
L 122.780665 209.301976 
L 123.286405 209.301976 
L 124.803625 206.400354 
L 126.320846 197.412438 
L 126.826586 197.978602 
L 128.849547 197.601166 
L 129.355287 198.969408 
L 129.861027 202.319235 
L 130.366767 201.871012 
L 131.883988 201.399212 
L 132.389728 198.426823 
L 132.895468 198.969408 
L 133.401208 200.196099 
L 133.906949 200.125331 
L 135.424169 199.747878 
L 135.929909 202.97976 
L 136.43565 201.800243 
L 136.94139 205.032128 
L 137.44713 204.631078 
L 138.96435 206.093687 
L 139.470091 208.594259 
L 139.975831 205.503928 
L 140.481571 206.235224 
L 140.987311 213.383095 
L 142.504532 213.170791 
L 143.010272 213.40669 
L 143.516012 210.882525 
L 144.021752 209.773776 
L 144.527492 207.296799 
L 146.550453 207.5327 
L 147.056193 209.39634 
L 147.561934 206.801404 
L 148.067674 204.937764 
L 149.584894 204.32441 
L 150.090634 203.33362 
L 150.596375 202.767438 
L 151.102115 202.81463 
L 151.607855 199.205309 
L 153.125076 199.724299 
L 153.630816 197.695527 
L 154.136556 196.657547 
L 154.642296 197.058578 
L 155.148036 198.403228 
L 156.665257 200.785858 
L 157.170997 204.159278 
L 157.676737 186.584475 
L 158.182477 189.981474 
L 158.688218 186.773186 
L 160.205438 186.254194 
L 160.711178 182.385379 
L 161.216918 185.310594 
L 162.228399 181.866406 
L 163.745619 178.917612 
L 164.25136 177.242683 
L 164.7571 176.110356 
L 165.26284 176.558577 
L 165.76858 178.304258 
L 167.285801 177.455006 
L 167.791541 173.940048 
L 168.297281 175.190334 
L 168.803021 174.883648 
L 169.308761 175.968818 
L 170.825982 175.756496 
L 171.331722 176.393447 
L 171.837462 176.440618 
L 172.343202 179.224282 
L 172.848943 179.177089 
L 174.366163 181.040729 
L 174.871903 182.975138 
L 175.377644 183.3054 
L 175.883384 182.173075 
L 176.389124 178.492986 
L 178.412085 178.021167 
L 178.917825 178.186299 
L 179.423565 179.554544 
L 179.929305 185.711628 
L 181.446526 190.4061 
L 181.952266 178.94119 
L 182.458006 176.063166 
L 182.963746 163.961321 
L 183.469486 160.988933 
L 184.986707 160.823803 
L 185.492447 165.872135 
L 185.998187 163.984919 
L 186.503927 162.805401 
L 187.009668 162.640269 
L 188.526888 169.198384 
L 189.032628 165.990094 
L 189.538369 164.362355 
L 190.044109 165.612639 
L 190.549849 167.263975 
L 192.067069 166.674216 
L 193.58429 164.338776 
L 194.09003 162.899763 
L 195.607251 161.22485 
L 196.112991 154.902637 
L 196.618731 155.728297 
L 197.124471 157.049349 
L 197.630211 154.478011 
L 199.147432 155.775468 
L 199.653172 153.770293 
L 200.158912 155.964196 
L 200.664653 156.884217 
L 201.170393 157.002176 
L 202.687613 156.318056 
L 203.193353 154.312878 
L 203.699094 162.899763 
L 204.204834 160.352003 
L 204.710574 163.937726 
L 206.227795 164.456716 
L 206.733535 164.90494 
L 207.239275 169.764545 
L 207.745015 170.755337 
L 208.250755 176.534982 
L 209.767976 172.878471 
L 210.273716 172.335902 
L 210.779456 173.35029 
L 211.285196 170.49586 
L 211.790937 179.861212 
L 213.308157 178.469391 
L 213.813897 181.158688 
L 214.319637 180.852021 
L 214.825378 173.51542 
L 215.331118 173.727726 
L 216.848338 172.784107 
L 217.354079 168.467087 
L 217.859819 169.858909 
L 218.871299 170.401496 
L 220.38852 169.693779 
L 220.89426 171.227154 
L 221.4 169.292747 
L 222.41148 175.025202 
L 223.928701 173.067198 
L 224.434441 174.246716 
L 224.940181 174.812879 
L 225.951662 167.617833 
L 227.468882 165.305971 
L 227.974622 164.008514 
L 228.480363 161.17766 
L 228.986103 160.375598 
L 229.491843 157.80424 
L 231.009063 159.384789 
L 231.514804 157.167308 
L 232.020544 157.025754 
L 232.526284 158.087332 
L 233.032024 159.880203 
L 235.054985 157.686298 
L 235.560725 155.327263 
L 236.066465 157.851431 
L 236.572205 157.379612 
L 238.595166 159.384789 
L 239.606647 159.101717 
L 240.112387 157.072944 
L 241.629607 154.312878 
L 242.135347 152.37847 
L 242.641088 152.449238 
L 243.652568 151.576388 
L 245.675529 153.392857 
L 246.181269 149.47685 
L 246.687009 150.892266 
L 247.192749 148.415291 
L 248.70997 149.47685 
L 249.21571 150.538408 
L 249.72145 148.48606 
L 250.22719 145.537266 
L 250.732931 144.428517 
L 252.250151 147.282947 
L 252.755891 146.763955 
L 253.261631 132.892837 
L 253.767372 130.651744 
L 254.273112 129.873275 
L 255.790332 127.93885 
L 256.296073 124.612639 
L 256.801813 122.70179 
L 257.307553 121.994108 
L 257.813293 120.083259 
L 259.330514 118.620669 
L 259.836254 117.700648 
L 260.341994 112.864619 
L 260.847734 112.510778 
L 261.353474 113.855409 
L 263.376435 111.189723 
L 263.882175 110.717923 
L 264.387915 108.476812 
L 264.893656 111.944596 
L 266.410876 109.042995 
L 266.916616 109.18453 
L 267.422356 107.273718 
L 267.928097 102.296152 
L 268.433837 105.174177 
L 269.951057 103.782356 
L 270.456798 104.51365 
L 270.962538 104.773146 
L 271.468278 105.268525 
L 271.974018 104.065429 
L 273.491239 105.009028 
L 273.996979 103.94747 
L 274.502719 103.687974 
L 275.008459 100.597645 
L 275.514199 99.937118 
L 277.03142 101.352553 
L 277.53716 97.318587 
L 278.0429 102.649994 
L 278.54864 99.32378 
L 279.054381 98.7576 
L 280.571601 103.735166 
L 281.077341 100.149421 
L 281.583082 93.614921 
L 282.088822 92.411792 
L 282.594562 93.52054 
L 284.111782 93.544117 
L 284.617523 94.629289 
L 285.123263 92.341023 
L 285.629003 92.175909 
L 286.134743 93.496962 
L 287.651964 93.803613 
L 288.157704 95.360585 
L 288.663444 98.521682 
L 289.169184 97.790386 
L 291.697885 98.969904 
L 292.203625 97.861155 
L 292.709366 99.418128 
L 293.215106 96.540103 
L 295.238066 93.072317 
L 295.743807 91.751264 
L 296.249547 93.04874 
L 296.755287 92.647709 
L 298.272508 90.26506 
L 298.778248 84.509046 
L 299.283988 89.109157 
L 299.789728 86.915236 
L 300.295468 86.349089 
L 301.812689 80.99407 
L 302.318429 69.576351 
L 302.824169 70.142495 
L 303.329909 72.926175 
L 303.83565 67.618347 
L 305.35287 64.528016 
L 305.85861 64.693132 
L 306.870091 75.70982 
L 307.375831 70.732254 
L 308.893051 69.269664 
L 309.398792 67.146547 
L 309.904532 69.647119 
L 310.410272 69.906613 
L 310.916012 69.269664 
L 312.938973 70.637909 
L 313.444713 69.340433 
L 313.950453 71.227668 
L 314.456193 70.260454 
L 315.973414 68.467602 
L 316.479154 69.505582 
L 316.984894 66.863439 
L 317.490634 66.320871 
L 317.996375 66.462408 
L 319.513595 88.755281 
L 320.019335 85.405453 
L 320.525076 84.603391 
L 321.030816 94.46414 
L 321.536556 93.379003 
L 323.053776 93.662075 
L 323.559517 86.089595 
L 324.065257 89.274271 
L 324.570997 88.684512 
L 325.076737 90.194292 
L 326.593958 85.381877 
L 327.099698 90.4774 
L 327.605438 91.704074 
L 328.111178 91.185082 
L 328.616918 91.798454 
L 330.134139 90.784051 
L 331.65136 95.171858 
L 332.1571 95.454965 
L 333.67432 92.600517 
L 334.18006 91.137927 
L 334.685801 88.44863 
L 335.191541 89.321461 
L 335.697281 83.494642 
L 337.214502 81.489448 
L 337.720242 80.593039 
L 338.731722 75.167251 
L 339.237462 78.729382 
L 340.754683 77.337559 
L 341.260423 74.459534 
L 341.766163 70.803023 
L 342.271903 69.859423 
L 342.777644 78.9653 
L 344.294864 78.941721 
L 344.800604 80.828921 
L 345.306344 56.813963 
L 345.812085 62.074601 
L 346.317825 64.386446 
L 347.835045 62.051022 
L 348.340785 58.41809 
L 349.352266 55.351373 
L 349.858006 63.13616 
L 351.375227 56.719582 
L 352.386707 50.538923 
L 352.892447 53.888748 
L 353.398187 60.163787 
L 354.915408 61.013042 
L 355.926888 57.309341 
L 356.432628 54.101087 
L 356.938369 55.941131 
L 358.455589 54.785193 
L 358.961329 54.879537 
L 359.467069 46.151116 
L 359.97281 46.528571 
L 360.47855 43.792081 
L 362.501511 46.269074 
L 363.007251 48.722454 
L 363.512991 50.185082 
L 364.018731 53.086683 
L 365.535952 53.935938 
L 366.041692 48.958372 
L 366.547432 55.422141 
L 367.053172 57.498069 
L 367.558912 58.724776 
L 369.076133 54.855959 
L 369.581873 56.271394 
L 370.087613 60.069443 
L 370.593353 65.023394 
L 371.099094 75.072907 
L 372.616314 78.729382 
L 373.627795 69.741464 
L 374.133535 69.529161 
L 374.639275 71.133285 
L 376.156495 68.656327 
L 376.662236 69.246086 
L 377.167976 70.142495 
L 377.673716 68.845055 
L 378.179456 66.981398 
L 380.202417 64.410057 
L 380.708157 64.622363 
L 383.236858 60.069443 
L 383.742598 55.634445 
L 384.248338 54.124665 
L 384.754079 62.782318 
L 385.259819 63.112581 
L 386.777039 62.452056 
L 387.282779 63.867491 
L 387.78852 62.404863 
L 388.29426 61.649991 
L 388.8 56.790386 
L 388.8 56.790386 
" style="fill:none;stroke:#1f77b4;stroke-linecap:square;stroke-width:1.5;"/>
   </g>
   <g id="line2d_20">
    <path clip-path="url(#pf1c23db138)" d="M 54 184.036715 
L 54.50574 190.264565 
L 55.01148 195.00623 
L 55.517221 205.032128 
L 57.540181 200.125331 
L 58.045921 196.751911 
L 58.551662 202.81463 
L 59.057402 197.789891 
L 59.563142 203.427984 
L 61.586103 204.536714 
L 62.091843 204.230047 
L 62.597583 205.385969 
L 63.103323 193.307722 
L 64.620544 197.978602 
L 65.126284 196.681142 
L 65.632024 212.180001 
L 66.137764 210.599453 
L 66.643505 202.932589 
L 68.160725 205.079302 
L 68.666465 209.679412 
L 69.172205 205.268029 
L 69.677946 204.67827 
L 70.183686 210.764583 
L 71.700906 208.429126 
L 72.206647 208.476316 
L 73.218127 211.519474 
L 73.723867 210.835351 
L 75.746828 204.583907 
L 76.252568 201.092526 
L 76.758308 205.480333 
L 77.264048 205.999323 
L 78.781269 204.017743 
L 79.287009 209.184017 
L 79.792749 205.857788 
L 80.298489 204.300815 
L 80.80423 203.946955 
L 82.32145 204.465948 
L 82.82719 195.407261 
L 83.332931 194.888271 
L 83.838671 193.118995 
L 84.344411 189.556847 
L 85.861631 192.246145 
L 86.367372 194.227743 
L 87.378852 193.897481 
L 87.884592 191.326124 
L 89.401813 190.712786 
L 89.907553 185.853163 
L 90.413293 182.574107 
L 90.919033 182.975138 
L 91.424773 182.692065 
L 92.941994 182.715642 
L 93.447734 180.80483 
L 94.459215 183.281824 
L 96.482175 184.414151 
L 96.987915 178.540159 
L 97.493656 174.105178 
L 97.999396 175.449828 
L 98.505136 173.090793 
L 100.022356 170.425072 
L 100.528097 173.51542 
L 101.033837 170.802527 
L 101.539577 176.511387 
L 103.562538 175.37906 
L 104.574018 168.254765 
L 105.079758 168.11323 
L 105.585498 173.421058 
L 107.102719 179.011959 
L 107.608459 180.356607 
L 108.114199 179.837636 
L 108.61994 182.574107 
L 109.12568 183.258229 
L 110.6429 184.673645 
L 111.14864 186.39575 
L 111.654381 201.800243 
L 112.160121 208.853753 
L 112.665861 211.42511 
L 114.183082 211.661011 
L 114.688822 208.028095 
L 115.700302 212.604627 
L 116.206042 213.831319 
L 117.723263 213.666186 
L 118.229003 212.180001 
L 118.734743 214.326713 
L 119.240483 219.445833 
L 119.746224 219.021205 
L 121.263444 211.094847 
L 121.769184 212.014869 
L 122.274924 209.490701 
L 122.780665 210.339956 
L 123.286405 207.933731 
L 124.803625 205.079302 
L 125.815106 197.553973 
L 126.320846 195.690333 
L 126.826586 195.83189 
L 128.849547 196.98781 
L 129.355287 200.290463 
L 129.861027 202.036144 
L 130.366767 201.564344 
L 131.883988 199.889432 
L 132.389728 198.945813 
L 132.895468 199.158119 
L 133.401208 197.483205 
L 133.906949 199.417613 
L 135.424169 202.932589 
L 135.929909 202.649498 
L 136.43565 203.404389 
L 136.94139 202.437175 
L 137.44713 207.674235 
L 138.96435 208.216823 
L 139.470091 206.30599 
L 139.975831 207.155245 
L 140.481571 205.857788 
L 140.987311 212.227172 
L 142.504532 215.435462 
L 143.010272 211.77897 
L 143.516012 209.868138 
L 144.021752 207.037305 
L 144.527492 206.353183 
L 146.550453 208.476316 
L 147.056193 207.202435 
L 147.561934 206.235224 
L 148.067674 204.489543 
L 149.584894 203.781825 
L 150.090634 202.743862 
L 150.596375 204.041319 
L 151.102115 199.511977 
L 151.607855 199.535572 
L 153.125076 197.058578 
L 153.630816 196.964215 
L 154.136556 196.751911 
L 154.642296 198.002197 
L 155.148036 199.818644 
L 156.665257 202.932589 
L 157.170997 204.513138 
L 157.676737 189.698401 
L 158.182477 186.419345 
L 158.688218 186.726013 
L 160.205438 182.385379 
L 160.711178 186.089064 
L 161.216918 182.998733 
L 161.722659 182.810005 
L 162.228399 179.011959 
L 163.745619 176.912418 
L 164.25136 175.874455 
L 164.7571 177.785268 
L 165.26284 177.950401 
L 165.76858 177.360642 
L 167.285801 174.293889 
L 167.791541 174.529807 
L 168.803021 175.237506 
L 169.308761 174.576978 
L 170.825982 176.582156 
L 171.331722 175.780093 
L 171.837462 177.714499 
L 172.343202 178.799653 
L 172.848943 180.28584 
L 174.366163 180.568929 
L 174.871903 182.503338 
L 175.377644 182.267439 
L 175.883384 180.781235 
L 176.389124 178.4222 
L 178.412085 178.492986 
L 178.917825 176.936013 
L 179.929305 189.273775 
L 181.446526 183.824393 
L 181.952266 177.903227 
L 182.963746 159.927374 
L 183.469486 161.460752 
L 184.986707 164.621849 
L 185.998187 164.692618 
L 186.503927 162.16845 
L 187.009668 166.674216 
L 188.526888 166.273185 
L 189.032628 165.77779 
L 189.538369 163.749018 
L 190.044109 167.924502 
L 190.549849 165.872135 
L 192.067069 167.122438 
L 192.57281 165.990094 
L 193.07855 165.872135 
L 193.58429 163.890555 
L 194.09003 163.489522 
L 195.607251 158.79503 
L 196.112991 158.205272 
L 196.618731 155.751892 
L 197.124471 156.601128 
L 197.630211 155.067769 
L 199.147432 155.256478 
L 199.653172 155.445206 
L 200.158912 156.270863 
L 200.664653 156.412417 
L 201.170393 157.497573 
L 202.687613 155.020577 
L 203.193353 153.605161 
L 203.699094 159.880203 
L 204.204834 162.498715 
L 204.710574 164.291586 
L 206.227795 164.716213 
L 206.733535 169.552241 
L 207.239275 169.316342 
L 207.745015 173.46823 
L 208.250755 175.803688 
L 209.767976 172.099985 
L 210.273716 170.566626 
L 210.779456 170.991255 
L 211.285196 178.280663 
L 211.790937 176.770883 
L 213.308157 183.18746 
L 213.813897 179.884807 
L 214.319637 173.090793 
L 214.825378 173.185157 
L 215.331118 172.925661 
L 216.848338 168.986061 
L 217.354079 168.820929 
L 217.859819 170.165578 
L 218.871299 168.844524 
L 220.89426 169.62301 
L 221.90574 174.270311 
L 222.41148 173.303097 
L 223.928701 175.166737 
L 224.434441 173.185157 
L 225.445921 168.066037 
L 225.951662 163.749018 
L 227.468882 165.282376 
L 227.974622 160.823803 
L 228.480363 160.823803 
L 228.986103 159.337615 
L 229.491843 158.983758 
L 231.009063 157.403209 
L 231.514804 156.671913 
L 232.020544 156.412417 
L 232.526284 158.228867 
L 233.032024 157.686298 
L 235.054985 155.940601 
L 235.560725 157.120118 
L 236.066465 157.190887 
L 236.572205 159.337615 
L 238.595166 158.559129 
L 239.100906 158.865816 
L 239.606647 157.473976 
L 240.112387 154.407223 
L 241.629607 151.85948 
L 242.135347 151.576388 
L 242.641088 150.066608 
L 243.146828 151.246126 
L 243.652568 151.741521 
L 245.675529 149.47685 
L 246.181269 149.500445 
L 246.687009 149.99584 
L 247.192749 149.47685 
L 248.70997 149.288122 
L 249.21571 149.547618 
L 249.72145 145.041871 
L 250.22719 144.900317 
L 250.732931 144.876739 
L 252.250151 145.63163 
L 252.755891 146.292157 
L 253.261631 128.835295 
L 253.767372 129.354285 
L 254.273112 128.056808 
L 255.790332 125.202397 
L 256.296073 122.27718 
L 256.801813 121.074086 
L 257.307553 120.177641 
L 257.813293 120.885359 
L 259.330514 118.125293 
L 259.836254 114.044137 
L 260.341994 112.888231 
L 260.847734 113.26565 
L 261.353474 112.392819 
L 263.376435 110.080975 
L 263.882175 109.113761 
L 264.387915 110.482006 
L 264.893656 110.175319 
L 266.916616 109.396836 
L 267.422356 102.791566 
L 267.928097 104.749532 
L 268.433837 102.815142 
L 269.951057 103.853125 
L 270.456798 103.42848 
L 270.962538 104.655187 
L 271.468278 105.410095 
L 271.974018 104.324925 
L 273.491239 104.183387 
L 273.996979 104.678766 
L 274.502719 101.21098 
L 275.008459 100.668414 
L 275.514199 102.319731 
L 277.03142 98.851945 
L 277.53716 102.673607 
L 278.0429 98.946328 
L 278.54864 100.125845 
L 279.054381 100.786372 
L 280.571601 100.22019 
L 281.077341 93.331813 
L 281.583082 92.576941 
L 282.088822 93.025162 
L 282.594562 93.662075 
L 284.111782 93.567731 
L 284.617523 91.043547 
L 285.123263 92.812823 
L 286.134743 94.416985 
L 287.651964 94.818017 
L 288.157704 98.450914 
L 288.663444 98.049883 
L 289.169184 99.819159 
L 291.192145 97.979114 
L 292.203625 100.692025 
L 292.709366 96.540103 
L 293.215106 96.941134 
L 294.732326 93.709268 
L 295.238066 91.609727 
L 295.743807 93.614921 
L 296.249547 93.355427 
L 296.755287 93.685689 
L 298.778248 84.579812 
L 299.789728 86.891657 
L 300.295468 81.159184 
L 301.812689 71.605121 
L 302.318429 69.293243 
L 302.824169 71.015362 
L 303.329909 69.387623 
L 303.83565 64.315677 
L 305.35287 65.259312 
L 305.85861 65.801881 
L 306.36435 78.116045 
L 306.870091 72.713872 
L 307.375831 71.487162 
L 308.893051 69.293243 
L 309.398792 69.741464 
L 309.904532 70.826637 
L 310.410272 69.576351 
L 310.916012 70.189686 
L 312.938973 70.048151 
L 313.444713 72.194879 
L 313.950453 71.204089 
L 314.456193 65.849071 
L 315.973414 69.434813 
L 316.479154 68.208106 
L 316.984894 66.037798 
L 317.490634 66.934208 
L 317.996375 81.112029 
L 319.513595 89.510188 
L 320.019335 86.750122 
L 320.525076 90.123523 
L 321.030816 92.175909 
L 321.536556 96.941134 
L 323.053776 87.339881 
L 323.559517 90.4774 
L 324.065257 88.44863 
L 324.570997 89.014774 
L 325.076737 87.481416 
L 326.593958 88.566553 
L 327.099698 93.496962 
L 327.605438 88.542974 
L 328.111178 93.614921 
L 328.616918 92.812823 
L 330.134139 94.03953 
L 331.145619 92.647709 
L 331.65136 95.855997 
L 332.1571 92.435403 
L 333.67432 90.359441 
L 334.18006 89.250692 
L 334.685801 88.755281 
L 335.191541 83.966442 
L 335.697281 80.970494 
L 337.214502 79.743784 
L 337.720242 78.517076 
L 338.225982 76.299579 
L 338.731722 77.903741 
L 339.237462 78.068855 
L 341.260423 72.242036 
L 341.766163 70.543527 
L 342.271903 77.384749 
L 342.777644 79.885321 
L 344.294864 81.701788 
L 344.800604 78.587845 
L 345.306344 61.862297 
L 345.812085 65.565963 
L 347.835045 57.922711 
L 348.340785 54.926728 
L 348.846526 52.614883 
L 349.352266 66.155722 
L 349.858006 61.060232 
L 351.375227 55.469296 
L 351.880967 51.340985 
L 352.386707 52.874379 
L 352.892447 60.163787 
L 353.398187 61.013042 
L 354.915408 61.697146 
L 355.421148 55.634445 
L 355.926888 55.162645 
L 356.432628 56.837541 
L 356.938369 55.445718 
L 358.455589 51.647672 
L 358.961329 48.250654 
L 359.467069 47.212674 
L 359.97281 45.679316 
L 360.47855 45.561357 
L 362.501511 50.208658 
L 363.007251 50.609689 
L 363.512991 52.143083 
L 364.018731 58.347321 
L 365.535952 51.576903 
L 366.041692 53.086683 
L 367.053172 59.172997 
L 367.558912 55.398528 
L 369.076133 58.252976 
L 369.581873 58.111439 
L 370.593353 70.708678 
L 371.099094 74.24723 
L 372.616314 77.408328 
L 373.122054 71.298437 
L 373.627795 68.727096 
L 374.133535 70.968172 
L 374.639275 68.986592 
L 376.156495 69.717886 
L 376.662236 68.137337 
L 377.167976 70.496372 
L 377.673716 65.990608 
L 378.179456 66.202912 
L 379.696677 64.92905 
L 380.202417 64.787512 
L 380.708157 63.254118 
L 381.213897 64.551595 
L 383.236858 55.398528 
L 383.742598 54.006706 
L 384.248338 55.681635 
L 384.754079 64.598785 
L 385.259819 63.961836 
L 386.777039 64.150563 
L 387.282779 61.956642 
L 387.78852 63.584381 
L 388.29426 61.225346 
L 388.8 47.920392 
L 388.8 47.920392 
" style="fill:none;stroke:#ff7f0e;stroke-linecap:square;stroke-width:1.5;"/>
   </g>
   <g id="line2d_21">
    <path clip-path="url(#pf1c23db138)" d="M 54 183.989523 
L 54.50574 182.857198 
L 55.01148 191.066627 
L 55.517221 196.35088 
L 56.022961 198.757086 
L 57.540181 198.875045 
L 58.045921 195.029808 
L 58.551662 193.850291 
L 59.057402 195.525203 
L 59.563142 202.059739 
L 61.586103 199.842239 
L 62.091843 200.927395 
L 62.597583 201.658708 
L 63.103323 193.213359 
L 64.620544 193.048226 
L 65.126284 194.581603 
L 65.632024 204.607502 
L 66.137764 209.585065 
L 66.643505 202.932589 
L 68.160725 204.418774 
L 68.666465 205.999323 
L 69.172205 204.112107 
L 69.677946 202.956165 
L 71.700906 206.801404 
L 72.206647 206.235224 
L 72.712387 205.268029 
L 73.218127 209.113249 
L 73.723867 209.632239 
L 75.746828 204.088512 
L 76.252568 200.880222 
L 76.758308 199.276078 
L 77.264048 204.300815 
L 78.781269 203.97055 
L 79.287009 204.914169 
L 79.792749 205.19726 
L 80.298489 204.300815 
L 80.80423 201.328443 
L 82.32145 200.833032 
L 82.82719 194.841097 
L 83.332931 194.558008 
L 83.838671 192.6236 
L 84.344411 187.811166 
L 85.861631 189.981474 
L 86.367372 192.505641 
L 86.873112 192.930267 
L 87.378852 191.373314 
L 87.884592 191.27895 
L 89.401813 189.792746 
L 89.907553 184.437746 
L 90.413293 181.772042 
L 90.919033 181.394589 
L 91.424773 181.32382 
L 92.941994 178.610926 
L 93.447734 179.460181 
L 93.953474 179.979171 
L 94.459215 181.913579 
L 96.482175 182.055117 
L 96.987915 178.280663 
L 97.493656 172.076408 
L 97.999396 173.303097 
L 98.505136 173.067198 
L 100.022356 167.900907 
L 100.528097 171.345096 
L 101.033837 170.755337 
L 102.045317 173.609783 
L 103.562538 171.628185 
L 104.068278 171.887681 
L 104.574018 167.547066 
L 105.079758 167.429107 
L 105.585498 167.641411 
L 107.608459 177.785268 
L 108.114199 177.572964 
L 108.61994 180.309435 
L 109.12568 181.370994 
L 111.14864 184.154655 
L 111.654381 199.700704 
L 112.160121 201.658708 
L 112.665861 209.113249 
L 114.183082 210.623029 
L 114.688822 206.70704 
L 115.194562 206.329585 
L 115.700302 210.646624 
L 116.206042 212.109232 
L 117.723263 211.354341 
L 118.229003 211.826141 
L 118.734743 211.826141 
L 119.240483 213.689781 
L 119.746224 216.308312 
L 121.263444 209.891735 
L 121.769184 209.160439 
L 122.274924 207.957326 
L 122.780665 209.301976 
L 123.286405 207.438336 
L 124.803625 203.28643 
L 125.309366 201.163313 
L 125.815106 197.270901 
L 126.320846 194.935445 
L 126.826586 195.548798 
L 128.849547 195.713928 
L 129.355287 197.742701 
L 129.861027 201.753072 
L 130.366767 200.738684 
L 131.883988 192.198974 
L 132.389728 196.964215 
L 132.895468 197.695527 
L 133.401208 196.681142 
L 133.906949 198.190924 
L 135.424169 198.733491 
L 135.929909 200.243273 
L 136.43565 200.408403 
L 136.94139 201.965375 
L 137.44713 204.560309 
L 138.96435 204.749037 
L 139.470091 205.268029 
L 139.975831 203.994148 
L 140.481571 205.409564 
L 140.987311 209.254784 
L 142.504532 213.052832 
L 143.010272 211.613819 
L 143.516012 209.51428 
L 144.021752 206.636272 
L 144.527492 204.984938 
L 146.550453 207.509103 
L 147.056193 206.895749 
L 147.561934 204.914169 
L 148.067674 203.994148 
L 149.584894 202.201274 
L 150.090634 202.083334 
L 150.596375 202.154103 
L 151.102115 199.040177 
L 151.607855 198.308864 
L 153.125076 196.35088 
L 153.630816 196.657547 
L 154.642296 194.298512 
L 155.148036 198.308864 
L 156.665257 199.394037 
L 157.170997 201.446385 
L 157.676737 186.39575 
L 158.688218 185.923931 
L 160.205438 182.149478 
L 160.711178 182.338205 
L 161.216918 182.880793 
L 161.722659 182.503338 
L 162.228399 178.610926 
L 163.745619 176.912418 
L 164.25136 175.567771 
L 164.7571 175.662132 
L 165.26284 175.591366 
L 165.76858 176.747288 
L 167.285801 174.152352 
L 167.791541 172.524613 
L 168.297281 174.553383 
L 168.803021 174.010817 
L 169.308761 173.798494 
L 170.825982 175.190334 
L 171.331722 174.671342 
L 171.837462 176.015992 
L 172.343202 178.068359 
L 172.848943 177.903227 
L 174.366163 179.106323 
L 174.871903 181.32382 
L 175.377644 181.158688 
L 175.883384 180.616103 
L 176.389124 177.785268 
L 178.412085 177.077551 
L 178.917825 175.992397 
L 179.929305 183.163865 
L 181.446526 183.163865 
L 181.952266 175.921628 
L 182.458006 165.919325 
L 182.963746 159.549922 
L 183.469486 158.606322 
L 184.986707 158.488363 
L 185.492447 163.347968 
L 185.998187 163.654654 
L 186.503927 161.413561 
L 187.009668 161.767419 
L 188.526888 165.070073 
L 189.032628 165.565468 
L 189.538369 162.121279 
L 190.044109 164.102859 
L 190.549849 165.117244 
L 192.067069 165.872135 
L 192.57281 162.899763 
L 193.07855 164.433121 
L 193.58429 162.828997 
L 194.09003 162.310004 
L 195.607251 157.143713 
L 196.112991 152.567181 
L 196.618731 154.242093 
L 197.124471 155.515974 
L 197.630211 153.793888 
L 199.147432 154.572374 
L 199.653172 153.699525 
L 201.170393 156.766258 
L 202.687613 154.808273 
L 203.193353 153.345665 
L 203.699094 159.620707 
L 204.204834 159.243252 
L 204.710574 160.776629 
L 206.227795 163.088474 
L 206.733535 164.173644 
L 207.239275 167.523471 
L 207.745015 169.62301 
L 208.250755 172.47744 
L 209.767976 171.864086 
L 210.273716 169.009656 
L 210.779456 169.953272 
L 211.285196 170.49586 
L 211.790937 175.732901 
L 213.308157 178.233489 
L 213.813897 178.540159 
L 214.319637 172.524613 
L 214.825378 172.241541 
L 215.331118 171.793317 
L 217.354079 167.358339 
L 217.859819 169.505051 
L 220.38852 167.24038 
L 220.89426 168.27836 
L 221.4 167.877329 
L 221.90574 170.849701 
L 222.41148 172.854895 
L 223.928701 172.99643 
L 224.434441 172.217943 
L 224.940181 170.259942 
L 225.445921 167.334744 
L 225.951662 161.979742 
L 227.468882 161.272024 
L 227.974622 159.101717 
L 228.480363 158.441189 
L 228.986103 157.190887 
L 229.491843 157.733472 
L 231.009063 155.657528 
L 231.514804 155.374437 
L 232.020544 155.610336 
L 232.526284 157.709877 
L 233.032024 157.686298 
L 235.054985 154.666719 
L 235.560725 154.147746 
L 236.066465 156.294458 
L 236.572205 156.082154 
L 238.595166 158.134503 
L 239.100906 157.709877 
L 239.606647 156.884217 
L 240.112387 153.817464 
L 241.629607 150.8215 
L 242.135347 150.939458 
L 242.641088 149.641982 
L 243.146828 151.128167 
L 243.652568 150.373276 
L 245.675529 148.910686 
L 246.181269 148.297332 
L 246.687009 149.264546 
L 247.192749 148.415291 
L 248.70997 147.566036 
L 249.21571 149.240951 
L 249.72145 144.522881 
L 250.22719 143.7208 
L 250.732931 143.933123 
L 252.755891 146.197794 
L 253.261631 124.730562 
L 253.767372 127.325515 
L 254.273112 127.797315 
L 255.790332 124.706984 
L 256.296073 120.956128 
L 256.801813 120.649441 
L 257.307553 120.106873 
L 257.813293 118.950934 
L 259.330514 116.874971 
L 260.341994 111.095343 
L 260.847734 111.96821 
L 261.353474 112.133323 
L 263.376435 109.963016 
L 264.387915 108.24093 
L 264.893656 110.175319 
L 266.410876 108.335277 
L 266.916616 108.335277 
L 267.422356 101.942311 
L 267.928097 101.635625 
L 268.433837 102.697184 
L 269.951057 102.838721 
L 270.456798 102.343343 
L 270.962538 102.767952 
L 271.468278 105.150601 
L 271.974018 103.805932 
L 273.491239 103.640819 
L 273.996979 103.121829 
L 274.502719 100.526876 
L 275.008459 99.889927 
L 275.514199 99.937118 
L 277.03142 98.7576 
L 277.53716 95.690848 
L 278.0429 98.521682 
L 278.54864 98.568873 
L 279.054381 98.19142 
L 280.571601 99.418128 
L 281.077341 92.765668 
L 281.583082 91.704074 
L 282.088822 91.680496 
L 282.594562 92.223064 
L 284.111782 92.576941 
L 284.617523 90.760474 
L 285.123263 89.415806 
L 285.629003 91.633305 
L 286.134743 92.435403 
L 287.651964 93.143085 
L 288.157704 94.393371 
L 288.663444 97.224242 
L 289.169184 96.681638 
L 291.192145 97.861155 
L 291.697885 97.483738 
L 292.203625 97.578083 
L 292.709366 95.407775 
L 293.215106 95.973956 
L 294.732326 92.977972 
L 295.238066 90.736896 
L 295.743807 91.444578 
L 296.249547 92.482558 
L 296.755287 92.152295 
L 298.778248 83.21157 
L 299.283988 84.62697 
L 299.789728 85.452646 
L 300.295468 81.112029 
L 301.812689 69.977382 
L 302.318429 67.193702 
L 302.824169 69.411202 
L 303.329909 69.104515 
L 303.83565 63.560805 
L 305.35287 63.018236 
L 305.85861 64.410057 
L 306.870091 70.826637 
L 307.375831 69.316854 
L 308.893051 67.901419 
L 309.398792 67.146547 
L 309.904532 68.868633 
L 310.410272 68.443988 
L 310.916012 68.703484 
L 312.938973 68.255296 
L 313.444713 68.868633 
L 313.950453 70.850213 
L 314.456193 65.849071 
L 315.973414 68.208106 
L 316.479154 64.999816 
L 316.984894 64.598785 
L 317.996375 66.462408 
L 319.513595 87.92964 
L 320.019335 84.72135 
L 320.525076 84.603391 
L 321.030816 91.727686 
L 321.536556 91.680496 
L 323.053776 86.396246 
L 323.559517 86.089595 
L 324.065257 87.976794 
L 324.570997 86.490626 
L 325.076737 85.405453 
L 326.593958 82.763346 
L 327.099698 87.764488 
L 327.605438 87.882447 
L 328.111178 90.194292 
L 328.616918 90.595323 
L 330.134139 89.793261 
L 331.145619 90.996392 
L 331.65136 94.03953 
L 332.1571 91.090737 
L 333.67432 88.259902 
L 334.18006 88.495784 
L 334.685801 87.717333 
L 335.191541 82.267935 
L 335.697281 80.286352 
L 337.214502 76.582687 
L 337.720242 78.399117 
L 338.225982 75.355979 
L 338.731722 74.601071 
L 339.237462 77.667824 
L 340.754683 72.949754 
L 341.260423 69.647119 
L 342.271903 69.293243 
L 342.777644 78.163235 
L 344.294864 77.927318 
L 344.800604 78.186814 
L 345.306344 55.705214 
L 345.812085 61.697146 
L 346.317825 61.24896 
L 347.835045 57.663218 
L 348.340785 50.798417 
L 348.846526 52.119471 
L 349.858006 58.488858 
L 351.375227 54.620041 
L 351.880967 49.925586 
L 352.386707 49.194289 
L 352.892447 53.440524 
L 353.398187 56.294973 
L 354.915408 60.093021 
L 355.421148 55.115455 
L 355.926888 54.006706 
L 356.432628 53.369758 
L 356.938369 53.7944 
L 358.455589 50.397385 
L 358.961329 47.755278 
L 359.97281 44.452608 
L 360.47855 43.461818 
L 362.501511 45.089557 
L 363.007251 48.061929 
L 363.512991 49.831205 
L 364.018731 52.402579 
L 365.535952 50.279427 
L 366.041692 45.773661 
L 366.547432 55.2098 
L 367.053172 56.53089 
L 367.558912 52.827189 
L 369.076133 53.935938 
L 369.581873 55.658024 
L 370.087613 59.220188 
L 370.593353 65.023394 
L 371.099094 73.350785 
L 372.616314 74.388765 
L 373.122054 69.458392 
L 373.627795 67.571157 
L 374.133535 68.609137 
L 374.639275 68.962978 
L 376.156495 68.208106 
L 376.662236 66.698326 
L 377.167976 69.599927 
L 377.673716 65.872649 
L 378.179456 65.754691 
L 379.696677 62.829509 
L 380.202417 59.833525 
L 380.708157 62.23975 
L 381.213897 61.319729 
L 381.719637 61.532032 
L 383.742598 53.063107 
L 384.248338 53.440524 
L 384.754079 62.003832 
L 385.259819 60.423284 
L 386.777039 60.564821 
L 387.282779 61.20177 
L 387.78852 60.895083 
L 388.29426 60.234556 
L 388.8 46.622915 
L 388.8 46.622915 
" style="fill:none;stroke:#2ca02c;stroke-linecap:square;stroke-width:1.5;"/>
   </g>
   <g id="line2d_22">
    <path clip-path="url(#pf1c23db138)" d="M 54 191.939477 
L 54.50574 190.972264 
L 55.01148 196.964215 
L 55.517221 205.079302 
L 56.022961 204.300815 
L 57.540181 202.932589 
L 58.045921 199.394037 
L 59.057402 206.70704 
L 59.563142 207.603466 
L 61.586103 207.273204 
L 62.091843 212.180001 
L 62.597583 208.594259 
L 63.103323 200.502767 
L 64.620544 198.521187 
L 65.126284 201.210484 
L 65.632024 212.368729 
L 66.137764 214.609805 
L 66.643505 209.986099 
L 68.160725 207.509103 
L 68.666465 210.151229 
L 69.172205 210.623029 
L 69.677946 208.0045 
L 70.183686 211.543052 
L 71.700906 213.076427 
L 72.206647 210.976889 
L 72.712387 210.575857 
L 73.218127 214.138005 
L 75.746828 209.372743 
L 76.252568 205.739827 
L 76.758308 205.881383 
L 77.264048 206.565486 
L 78.781269 206.282414 
L 79.792749 212.4159 
L 80.298489 207.862963 
L 80.80423 204.725442 
L 82.32145 204.560309 
L 82.82719 202.743862 
L 83.332931 197.506802 
L 84.344411 193.425662 
L 85.861631 194.392876 
L 86.367372 195.713928 
L 87.378852 196.303687 
L 87.884592 193.118995 
L 89.401813 192.458467 
L 89.907553 187.575268 
L 90.413293 185.829586 
L 90.919033 184.956736 
L 91.424773 184.414151 
L 92.941994 184.53211 
L 93.447734 184.366978 
L 93.953474 182.739237 
L 94.459215 185.121869 
L 96.482175 184.720835 
L 96.987915 185.145464 
L 97.493656 176.369852 
L 97.999396 175.709325 
L 98.505136 177.313468 
L 100.022356 172.430266 
L 100.528097 174.435443 
L 101.033837 174.954433 
L 101.539577 177.502177 
L 102.045317 177.384237 
L 103.562538 175.827264 
L 104.068278 176.228296 
L 104.574018 171.179963 
L 105.079758 169.929677 
L 105.585498 173.704131 
L 107.102719 180.28584 
L 107.608459 181.960753 
L 108.114199 182.3618 
L 108.61994 183.635682 
L 109.12568 185.758799 
L 110.6429 186.018295 
L 111.14864 187.433711 
L 111.654381 206.848578 
L 112.665861 214.326713 
L 114.183082 214.586207 
L 114.688822 211.566647 
L 115.194562 211.236383 
L 115.700302 213.925682 
L 116.206042 215.883686 
L 117.723263 214.138005 
L 118.229003 215.27033 
L 118.734743 214.444672 
L 119.240483 221.498182 
L 121.263444 216.355483 
L 121.769184 213.147196 
L 122.274924 211.071252 
L 122.780665 211.826141 
L 123.286405 209.585065 
L 124.803625 206.872173 
L 125.815106 201.116121 
L 126.826586 198.426823 
L 128.849547 199.441208 
L 129.355287 200.597131 
L 129.861027 204.607502 
L 130.366767 202.673093 
L 131.883988 202.437175 
L 132.389728 199.110946 
L 133.401208 200.290463 
L 133.906949 200.243273 
L 135.929909 204.32441 
L 136.43565 203.663883 
L 137.44713 207.745004 
L 138.96435 208.381953 
L 139.470091 209.207613 
L 139.975831 207.627064 
L 140.481571 207.862963 
L 140.987311 213.996449 
L 142.504532 216.709343 
L 143.010272 215.199563 
L 143.516012 211.684606 
L 144.021752 210.104039 
L 144.527492 207.674235 
L 146.550453 209.726603 
L 147.056193 209.938906 
L 147.561934 206.990113 
L 148.067674 205.975728 
L 149.584894 204.371584 
L 150.090634 203.45156 
L 150.596375 204.112107 
L 151.102115 202.97976 
L 151.607855 200.196099 
L 153.125076 199.960201 
L 153.630816 198.214519 
L 154.136556 197.270901 
L 154.642296 198.709914 
L 155.148036 200.644321 
L 157.170997 205.102897 
L 157.676737 190.170201 
L 158.182477 190.005069 
L 158.688218 187.976299 
L 160.205438 186.254194 
L 160.711178 187.221408 
L 161.216918 185.404958 
L 161.722659 184.201845 
L 162.228399 182.078712 
L 163.745619 179.766848 
L 164.25136 177.761673 
L 164.7571 178.351432 
L 165.26284 178.139128 
L 165.76858 178.304258 
L 167.285801 177.596541 
L 167.791541 174.930838 
L 168.297281 176.983206 
L 168.803021 175.37906 
L 169.308761 176.936013 
L 170.825982 178.139128 
L 171.331722 176.534982 
L 172.343202 180.899194 
L 172.848943 181.772042 
L 174.366163 181.819215 
L 174.871903 183.682855 
L 175.377644 183.352593 
L 175.883384 183.399764 
L 176.389124 180.568929 
L 178.412085 178.94119 
L 178.917825 179.979171 
L 179.929305 189.273775 
L 181.446526 190.689191 
L 181.952266 179.578139 
L 182.458006 176.369852 
L 182.963746 164.834171 
L 183.469486 163.536695 
L 184.986707 165.400335 
L 185.492447 167.146016 
L 185.998187 167.311149 
L 186.503927 163.631059 
L 187.009668 169.410687 
L 188.526888 169.410687 
L 189.032628 167.547066 
L 189.538369 164.975709 
L 190.044109 168.820929 
L 190.549849 168.820929 
L 192.067069 167.688601 
L 192.57281 166.862944 
L 193.07855 166.72139 
L 194.09003 164.786981 
L 195.607251 161.932551 
L 196.112991 158.441189 
L 196.618731 157.143713 
L 197.124471 159.573517 
L 197.630211 156.247287 
L 199.147432 157.072944 
L 199.653172 155.492396 
L 200.158912 164.102859 
L 200.664653 158.134503 
L 201.170393 158.252462 
L 203.193353 155.822658 
L 203.699094 165.258798 
L 204.204834 163.39516 
L 204.710574 164.928535 
L 206.227795 165.518294 
L 206.733535 171.816912 
L 207.239275 170.165578 
L 208.250755 177.525772 
L 209.767976 174.34108 
L 210.273716 173.774916 
L 210.779456 177.667309 
L 211.285196 182.904369 
L 211.790937 181.205862 
L 213.308157 187.03268 
L 213.813897 182.125883 
L 214.319637 181.087922 
L 214.825378 175.827264 
L 215.331118 173.869261 
L 216.848338 173.043603 
L 217.354079 169.764545 
L 217.859819 172.288712 
L 218.871299 170.826122 
L 220.38852 169.788142 
L 220.89426 172.902066 
L 221.4 172.430266 
L 221.90574 175.355465 
L 223.928701 177.195509 
L 224.434441 174.978012 
L 224.940181 175.048778 
L 225.951662 167.617833 
L 227.468882 167.193206 
L 228.480363 161.319198 
L 228.986103 160.729439 
L 229.491843 159.738647 
L 231.009063 159.502748 
L 231.514804 157.308845 
L 232.020544 157.072944 
L 232.526284 159.762244 
L 233.032024 159.880203 
L 235.054985 157.757067 
L 235.560725 158.441189 
L 236.066465 157.969371 
L 236.572205 160.257639 
L 238.595166 161.838188 
L 239.100906 159.502748 
L 239.606647 159.361211 
L 240.112387 157.80424 
L 241.629607 154.336457 
L 242.641088 152.779503 
L 243.146828 153.699525 
L 243.652568 152.284106 
L 245.675529 153.675929 
L 246.181269 150.160972 
L 246.687009 150.963035 
L 247.192749 150.113782 
L 248.70997 150.019435 
L 249.21571 150.656367 
L 249.72145 148.816322 
L 250.22719 145.702399 
L 250.732931 145.702399 
L 252.250151 147.919877 
L 252.755891 148.014241 
L 253.261631 132.940011 
L 253.767372 131.123561 
L 254.273112 130.227116 
L 255.790332 128.481454 
L 256.296073 124.824942 
L 256.801813 123.008476 
L 257.307553 123.244394 
L 257.813293 121.050473 
L 259.330514 119.399155 
L 259.836254 118.219638 
L 260.341994 114.987772 
L 263.882175 111.472796 
L 264.387915 111.024574 
L 264.893656 113.430799 
L 266.916616 110.080975 
L 267.422356 107.957822 
L 267.928097 105.221367 
L 268.433837 105.622401 
L 269.951057 105.598787 
L 270.456798 105.150601 
L 270.962538 105.079797 
L 271.468278 109.255298 
L 271.974018 105.504442 
L 273.996979 105.032642 
L 274.502719 104.584419 
L 275.008459 101.682815 
L 275.514199 102.555649 
L 277.03142 101.753584 
L 277.53716 102.933101 
L 278.0429 102.862333 
L 278.54864 100.857139 
L 279.054381 101.470476 
L 280.571601 105.551632 
L 281.077341 100.833563 
L 281.583082 94.770827 
L 282.088822 94.03953 
L 282.594562 95.195469 
L 284.111782 95.101089 
L 284.617523 94.818017 
L 285.123263 93.308234 
L 285.629003 94.157489 
L 286.134743 94.582099 
L 287.651964 95.454965 
L 288.157704 102.154615 
L 288.663444 99.913539 
L 289.169184 99.819159 
L 291.192145 100.243804 
L 291.697885 99.677621 
L 292.203625 101.234594 
L 293.215106 97.931924 
L 294.732326 94.794438 
L 295.238066 93.166699 
L 295.743807 94.322603 
L 296.755287 94.582099 
L 298.272508 90.595323 
L 298.778248 86.160363 
L 299.283988 92.223064 
L 299.789728 88.590165 
L 300.295468 86.349089 
L 301.812689 80.99407 
L 302.318429 70.567141 
L 302.824169 73.728238 
L 303.329909 73.256438 
L 303.83565 67.689116 
L 305.35287 66.792671 
L 305.85861 67.571157 
L 306.36435 79.389907 
L 307.375831 72.50153 
L 308.893051 71.841003 
L 309.398792 70.897403 
L 309.904532 72.407185 
L 310.916012 70.897403 
L 312.938973 70.850213 
L 313.444713 73.091289 
L 313.950453 73.468744 
L 314.456193 71.888195 
L 315.973414 70.543527 
L 316.479154 69.788654 
L 316.984894 68.137337 
L 317.490634 68.326065 
L 317.996375 88.094753 
L 319.513595 96.374987 
L 320.019335 90.147137 
L 320.525076 93.237468 
L 321.030816 97.082669 
L 321.536556 97.106283 
L 323.053776 93.662075 
L 323.559517 90.642515 
L 324.065257 91.420999 
L 324.570997 90.217906 
L 325.076737 90.241482 
L 326.593958 89.604533 
L 327.099698 93.756458 
L 327.605438 94.841593 
L 328.111178 96.917555 
L 328.616918 93.379003 
L 330.134139 94.98313 
L 331.145619 95.879575 
L 331.65136 96.610869 
L 332.1571 95.454965 
L 333.67432 94.346217 
L 334.18006 91.963568 
L 334.685801 90.925588 
L 335.191541 89.462998 
L 335.697281 85.004422 
L 337.214502 82.079207 
L 337.720242 81.843325 
L 338.225982 78.823763 
L 338.731722 78.257582 
L 339.237462 81.347911 
L 340.754683 78.941721 
L 341.260423 74.459534 
L 341.766163 71.487162 
L 342.271903 85.075191 
L 342.777644 80.616617 
L 344.294864 83.117187 
L 344.800604 82.45666 
L 345.306344 64.17414 
L 345.812085 66.863439 
L 346.317825 65.282891 
L 347.835045 62.971046 
L 348.340785 59.196576 
L 348.846526 57.214994 
L 349.352266 67.783461 
L 349.858006 64.386446 
L 351.375227 58.064249 
L 351.880967 54.785193 
L 352.386707 54.761614 
L 352.892447 60.21098 
L 353.398187 62.853087 
L 354.915408 66.651133 
L 355.421148 59.786335 
L 355.926888 57.757562 
L 356.432628 58.536049 
L 356.938369 56.837541 
L 358.455589 55.280604 
L 358.961329 55.115455 
L 359.467069 48.958372 
L 359.97281 46.906023 
L 360.47855 46.552147 
L 362.501511 53.7944 
L 363.007251 53.888748 
L 363.512991 54.2662 
L 364.018731 58.583239 
L 365.535952 55.374951 
L 366.041692 58.017059 
L 366.547432 60.045829 
L 367.053172 59.621221 
L 367.558912 59.833525 
L 369.076133 59.833525 
L 369.581873 58.795545 
L 370.087613 69.670696 
L 370.593353 72.218458 
L 371.099094 77.384749 
L 372.616314 80.687384 
L 373.122054 74.71903 
L 373.627795 70.354837 
L 374.639275 73.987734 
L 376.156495 72.289227 
L 376.662236 69.481968 
L 377.167976 72.902562 
L 377.673716 69.151706 
L 378.179456 67.94861 
L 379.696677 65.754691 
L 380.202417 66.674712 
L 380.708157 65.141353 
L 381.213897 65.188543 
L 381.719637 63.584381 
L 383.236858 60.659201 
L 383.742598 56.931921 
L 384.248338 56.059055 
L 384.754079 66.863439 
L 385.259819 64.645939 
L 386.777039 65.731112 
L 387.282779 64.079795 
L 387.78852 66.273681 
L 388.29426 62.71155 
L 388.8 58.182208 
L 388.8 58.182208 
" style="fill:none;stroke:#d62728;stroke-linecap:square;stroke-width:1.5;"/>
   </g>
   <g id="patch_3">
    <path d="M 54 230.4 
L 54 34.56 
" style="fill:none;stroke:#000000;stroke-linecap:square;stroke-linejoin:miter;stroke-width:0.8;"/>
   </g>
   <g id="patch_4">
    <path d="M 388.8 230.4 
L 388.8 34.56 
" style="fill:none;stroke:#000000;stroke-linecap:square;stroke-linejoin:miter;stroke-width:0.8;"/>
   </g>
   <g id="patch_5">
    <path d="M 54 230.4 
L 388.8 230.4 
" style="fill:none;stroke:#000000;stroke-linecap:square;stroke-linejoin:miter;stroke-width:0.8;"/>
   </g>
   <g id="patch_6">
    <path d="M 54 34.56 
L 388.8 34.56 
" style="fill:none;stroke:#000000;stroke-linecap:square;stroke-linejoin:miter;stroke-width:0.8;"/>
   </g>
   <g id="legend_1">
    <g id="patch_7">
     <path d="M 61 101.2725 
L 120.242188 101.2725 
Q 122.242188 101.2725 122.242188 99.2725 
L 122.242188 41.56 
Q 122.242188 39.56 120.242188 39.56 
L 61 39.56 
Q 59 39.56 59 41.56 
L 59 99.2725 
Q 59 101.2725 61 101.2725 
z
" style="fill:#ffffff;opacity:0.8;stroke:#cccccc;stroke-linejoin:miter;"/>
    </g>
    <g id="line2d_23">
     <path d="M 63 47.658437 
L 83 47.658437 
" style="fill:none;stroke:#1f77b4;stroke-linecap:square;stroke-width:1.5;"/>
    </g>
    <g id="line2d_24"/>
    <g id="text_20">
     <!-- Open -->
     <defs>
      <path d="M 39.40625 66.21875 
Q 28.65625 66.21875 22.328125 58.203125 
Q 16.015625 50.203125 16.015625 36.375 
Q 16.015625 22.609375 22.328125 14.59375 
Q 28.65625 6.59375 39.40625 6.59375 
Q 50.140625 6.59375 56.421875 14.59375 
Q 62.703125 22.609375 62.703125 36.375 
Q 62.703125 50.203125 56.421875 58.203125 
Q 50.140625 66.21875 39.40625 66.21875 
z
M 39.40625 74.21875 
Q 54.734375 74.21875 63.90625 63.9375 
Q 73.09375 53.65625 73.09375 36.375 
Q 73.09375 19.140625 63.90625 8.859375 
Q 54.734375 -1.421875 39.40625 -1.421875 
Q 24.03125 -1.421875 14.8125 8.828125 
Q 5.609375 19.09375 5.609375 36.375 
Q 5.609375 53.65625 14.8125 63.9375 
Q 24.03125 74.21875 39.40625 74.21875 
z
" id="DejaVuSans-4f"/>
      <path d="M 18.109375 8.203125 
L 18.109375 -20.796875 
L 9.078125 -20.796875 
L 9.078125 54.6875 
L 18.109375 54.6875 
L 18.109375 46.390625 
Q 20.953125 51.265625 25.265625 53.625 
Q 29.59375 56 35.59375 56 
Q 45.5625 56 51.78125 48.09375 
Q 58.015625 40.1875 58.015625 27.296875 
Q 58.015625 14.40625 51.78125 6.484375 
Q 45.5625 -1.421875 35.59375 -1.421875 
Q 29.59375 -1.421875 25.265625 0.953125 
Q 20.953125 3.328125 18.109375 8.203125 
z
M 48.6875 27.296875 
Q 48.6875 37.203125 44.609375 42.84375 
Q 40.53125 48.484375 33.40625 48.484375 
Q 26.265625 48.484375 22.1875 42.84375 
Q 18.109375 37.203125 18.109375 27.296875 
Q 18.109375 17.390625 22.1875 11.75 
Q 26.265625 6.109375 33.40625 6.109375 
Q 40.53125 6.109375 44.609375 11.75 
Q 48.6875 17.390625 48.6875 27.296875 
z
" id="DejaVuSans-70"/>
      <path d="M 54.890625 33.015625 
L 54.890625 0 
L 45.90625 0 
L 45.90625 32.71875 
Q 45.90625 40.484375 42.875 44.328125 
Q 39.84375 48.1875 33.796875 48.1875 
Q 26.515625 48.1875 22.3125 43.546875 
Q 18.109375 38.921875 18.109375 30.90625 
L 18.109375 0 
L 9.078125 0 
L 9.078125 54.6875 
L 18.109375 54.6875 
L 18.109375 46.1875 
Q 21.34375 51.125 25.703125 53.5625 
Q 30.078125 56 35.796875 56 
Q 45.21875 56 50.046875 50.171875 
Q 54.890625 44.34375 54.890625 33.015625 
z
" id="DejaVuSans-6e"/>
     </defs>
     <g transform="translate(91 51.158437)scale(0.1 -0.1)">
      <use xlink:href="#DejaVuSans-4f"/>
      <use x="78.710938" xlink:href="#DejaVuSans-70"/>
      <use x="142.1875" xlink:href="#DejaVuSans-65"/>
      <use x="203.710938" xlink:href="#DejaVuSans-6e"/>
     </g>
    </g>
    <g id="line2d_25">
     <path d="M 63 62.336562 
L 83 62.336562 
" style="fill:none;stroke:#ff7f0e;stroke-linecap:square;stroke-width:1.5;"/>
    </g>
    <g id="line2d_26"/>
    <g id="text_21">
     <!-- Close -->
     <defs>
      <path d="M 64.40625 67.28125 
L 64.40625 56.890625 
Q 59.421875 61.53125 53.78125 63.8125 
Q 48.140625 66.109375 41.796875 66.109375 
Q 29.296875 66.109375 22.65625 58.46875 
Q 16.015625 50.828125 16.015625 36.375 
Q 16.015625 21.96875 22.65625 14.328125 
Q 29.296875 6.6875 41.796875 6.6875 
Q 48.140625 6.6875 53.78125 8.984375 
Q 59.421875 11.28125 64.40625 15.921875 
L 64.40625 5.609375 
Q 59.234375 2.09375 53.4375 0.328125 
Q 47.65625 -1.421875 41.21875 -1.421875 
Q 24.65625 -1.421875 15.125 8.703125 
Q 5.609375 18.84375 5.609375 36.375 
Q 5.609375 53.953125 15.125 64.078125 
Q 24.65625 74.21875 41.21875 74.21875 
Q 47.75 74.21875 53.53125 72.484375 
Q 59.328125 70.75 64.40625 67.28125 
z
" id="DejaVuSans-43"/>
      <path d="M 9.421875 75.984375 
L 18.40625 75.984375 
L 18.40625 0 
L 9.421875 0 
z
" id="DejaVuSans-6c"/>
      <path d="M 30.609375 48.390625 
Q 23.390625 48.390625 19.1875 42.75 
Q 14.984375 37.109375 14.984375 27.296875 
Q 14.984375 17.484375 19.15625 11.84375 
Q 23.34375 6.203125 30.609375 6.203125 
Q 37.796875 6.203125 41.984375 11.859375 
Q 46.1875 17.53125 46.1875 27.296875 
Q 46.1875 37.015625 41.984375 42.703125 
Q 37.796875 48.390625 30.609375 48.390625 
z
M 30.609375 56 
Q 42.328125 56 49.015625 48.375 
Q 55.71875 40.765625 55.71875 27.296875 
Q 55.71875 13.875 49.015625 6.21875 
Q 42.328125 -1.421875 30.609375 -1.421875 
Q 18.84375 -1.421875 12.171875 6.21875 
Q 5.515625 13.875 5.515625 27.296875 
Q 5.515625 40.765625 12.171875 48.375 
Q 18.84375 56 30.609375 56 
z
" id="DejaVuSans-6f"/>
      <path d="M 44.28125 53.078125 
L 44.28125 44.578125 
Q 40.484375 46.53125 36.375 47.5 
Q 32.28125 48.484375 27.875 48.484375 
Q 21.1875 48.484375 17.84375 46.4375 
Q 14.5 44.390625 14.5 40.28125 
Q 14.5 37.15625 16.890625 35.375 
Q 19.28125 33.59375 26.515625 31.984375 
L 29.59375 31.296875 
Q 39.15625 29.25 43.1875 25.515625 
Q 47.21875 21.78125 47.21875 15.09375 
Q 47.21875 7.46875 41.1875 3.015625 
Q 35.15625 -1.421875 24.609375 -1.421875 
Q 20.21875 -1.421875 15.453125 -0.5625 
Q 10.6875 0.296875 5.421875 2 
L 5.421875 11.28125 
Q 10.40625 8.6875 15.234375 7.390625 
Q 20.0625 6.109375 24.8125 6.109375 
Q 31.15625 6.109375 34.5625 8.28125 
Q 37.984375 10.453125 37.984375 14.40625 
Q 37.984375 18.0625 35.515625 20.015625 
Q 33.0625 21.96875 24.703125 23.78125 
L 21.578125 24.515625 
Q 13.234375 26.265625 9.515625 29.90625 
Q 5.8125 33.546875 5.8125 39.890625 
Q 5.8125 47.609375 11.28125 51.796875 
Q 16.75 56 26.8125 56 
Q 31.78125 56 36.171875 55.265625 
Q 40.578125 54.546875 44.28125 53.078125 
z
" id="DejaVuSans-73"/>
     </defs>
     <g transform="translate(91 65.836562)scale(0.1 -0.1)">
      <use xlink:href="#DejaVuSans-43"/>
      <use x="69.824219" xlink:href="#DejaVuSans-6c"/>
      <use x="97.607422" xlink:href="#DejaVuSans-6f"/>
      <use x="158.789062" xlink:href="#DejaVuSans-73"/>
      <use x="210.888672" xlink:href="#DejaVuSans-65"/>
     </g>
    </g>
    <g id="line2d_27">
     <path d="M 63 77.014687 
L 83 77.014687 
" style="fill:none;stroke:#2ca02c;stroke-linecap:square;stroke-width:1.5;"/>
    </g>
    <g id="line2d_28"/>
    <g id="text_22">
     <!-- High -->
     <defs>
      <path d="M 9.8125 72.90625 
L 19.671875 72.90625 
L 19.671875 43.015625 
L 55.515625 43.015625 
L 55.515625 72.90625 
L 65.375 72.90625 
L 65.375 0 
L 55.515625 0 
L 55.515625 34.71875 
L 19.671875 34.71875 
L 19.671875 0 
L 9.8125 0 
z
" id="DejaVuSans-48"/>
      <path d="M 9.421875 54.6875 
L 18.40625 54.6875 
L 18.40625 0 
L 9.421875 0 
z
M 9.421875 75.984375 
L 18.40625 75.984375 
L 18.40625 64.59375 
L 9.421875 64.59375 
z
" id="DejaVuSans-69"/>
      <path d="M 45.40625 27.984375 
Q 45.40625 37.75 41.375 43.109375 
Q 37.359375 48.484375 30.078125 48.484375 
Q 22.859375 48.484375 18.828125 43.109375 
Q 14.796875 37.75 14.796875 27.984375 
Q 14.796875 18.265625 18.828125 12.890625 
Q 22.859375 7.515625 30.078125 7.515625 
Q 37.359375 7.515625 41.375 12.890625 
Q 45.40625 18.265625 45.40625 27.984375 
z
M 54.390625 6.78125 
Q 54.390625 -7.171875 48.1875 -13.984375 
Q 42 -20.796875 29.203125 -20.796875 
Q 24.46875 -20.796875 20.265625 -20.09375 
Q 16.0625 -19.390625 12.109375 -17.921875 
L 12.109375 -9.1875 
Q 16.0625 -11.328125 19.921875 -12.34375 
Q 23.78125 -13.375 27.78125 -13.375 
Q 36.625 -13.375 41.015625 -8.765625 
Q 45.40625 -4.15625 45.40625 5.171875 
L 45.40625 9.625 
Q 42.625 4.78125 38.28125 2.390625 
Q 33.9375 0 27.875 0 
Q 17.828125 0 11.671875 7.65625 
Q 5.515625 15.328125 5.515625 27.984375 
Q 5.515625 40.671875 11.671875 48.328125 
Q 17.828125 56 27.875 56 
Q 33.9375 56 38.28125 53.609375 
Q 42.625 51.21875 45.40625 46.390625 
L 45.40625 54.6875 
L 54.390625 54.6875 
z
" id="DejaVuSans-67"/>
      <path d="M 54.890625 33.015625 
L 54.890625 0 
L 45.90625 0 
L 45.90625 32.71875 
Q 45.90625 40.484375 42.875 44.328125 
Q 39.84375 48.1875 33.796875 48.1875 
Q 26.515625 48.1875 22.3125 43.546875 
Q 18.109375 38.921875 18.109375 30.90625 
L 18.109375 0 
L 9.078125 0 
L 9.078125 75.984375 
L 18.109375 75.984375 
L 18.109375 46.1875 
Q 21.34375 51.125 25.703125 53.5625 
Q 30.078125 56 35.796875 56 
Q 45.21875 56 50.046875 50.171875 
Q 54.890625 44.34375 54.890625 33.015625 
z
" id="DejaVuSans-68"/>
     </defs>
     <g transform="translate(91 80.514687)scale(0.1 -0.1)">
      <use xlink:href="#DejaVuSans-48"/>
      <use x="75.195312" xlink:href="#DejaVuSans-69"/>
      <use x="102.978516" xlink:href="#DejaVuSans-67"/>
      <use x="166.455078" xlink:href="#DejaVuSans-68"/>
     </g>
    </g>
    <g id="line2d_29">
     <path d="M 63 91.692813 
L 83 91.692813 
" style="fill:none;stroke:#d62728;stroke-linecap:square;stroke-width:1.5;"/>
    </g>
    <g id="line2d_30"/>
    <g id="text_23">
     <!-- Low -->
     <defs>
      <path d="M 9.8125 72.90625 
L 19.671875 72.90625 
L 19.671875 8.296875 
L 55.171875 8.296875 
L 55.171875 0 
L 9.8125 0 
z
" id="DejaVuSans-4c"/>
      <path d="M 4.203125 54.6875 
L 13.1875 54.6875 
L 24.421875 12.015625 
L 35.59375 54.6875 
L 46.1875 54.6875 
L 57.421875 12.015625 
L 68.609375 54.6875 
L 77.59375 54.6875 
L 63.28125 0 
L 52.6875 0 
L 40.921875 44.828125 
L 29.109375 0 
L 18.5 0 
z
" id="DejaVuSans-77"/>
     </defs>
     <g transform="translate(91 95.192813)scale(0.1 -0.1)">
      <use xlink:href="#DejaVuSans-4c"/>
      <use x="55.697266" xlink:href="#DejaVuSans-6f"/>
      <use x="116.878906" xlink:href="#DejaVuSans-77"/>
     </g>
    </g>
   </g>
  </g>
 </g>
 <defs>
  <clipPath id="pf1c23db138">
   <rect height="195.84" width="334.8" x="54" y="34.56"/>
  </clipPath>
 </defs>
</svg>
